<?xml version="1.0" encoding="utf-8"?>
<!-- Generator: Adobe Illustrator 27.0.0, SVG Export Plug-In . SVG Version: 6.00 Build 0)  -->
<svg version="1.1" id="Layer_1" xmlns="http://www.w3.org/2000/svg" xmlns:xlink="http://www.w3.org/1999/xlink" x="0px" y="0px"
	 viewBox="0 0 500 500" style="enable-background:new 0 0 500 500;" xml:space="preserve">
<style type="text/css">
	.st0{fill:#401C11;}
	.st1{fill:#D7B451;}
	.st2{fill:#6E3DD9;}
	.st3{fill:#F9F9F9;}
	.st4{fill:#B67E19;}
	.st5{fill:#854103;}
	.st6{fill:#F1DDA6;}
	.st7{fill:#BE46D1;}
</style>
<g>
	<path class="st0" d="M254.36,499.91c-7.04-0.34-14.05-1.94-20.77-3.95c-8.07-2.42-12.27-10.28-10.03-18.47
		c0.26-0.96,0.59-1.87,0.09-2.89c-2.21-4.48-1.36-8.89,0.45-13.24c1.09-2.62,2.43-5.1,4.2-7.32c0.78-0.98,1.03-1.83,0.6-3.15
		c-2.91-8.9,1.62-19.21,10.11-23.27c4.3-2.06,4.29-2.06,3.49-6.82c-2.56-15.15-5.15-30.29-7.59-45.45
		c-0.33-2.06-1.05-2.37-2.99-2.29c-13.69,0.5-27.39,0.91-41.06-0.53c-1.85-0.19-2.57,0-2.39,2.19c1.28,14.98,2.43,29.97,3.6,44.95
		c0.08,1,0.21,1.7,1.49,1.81c9.79,0.84,13.8,7.49,15.87,16c1.83,7.56,2,15.28,1.97,23c0,0.86,0.05,1.57,0.52,2.33
		c3.65,6.01,1.82,12.01-1.86,15.71c-3.16,3.17-7.1,5.1-11.25,6.65c-7.5,2.8-15.41,3.74-23.35,4.22c-8.56,0.52-17.18,0.94-25.72-0.08
		c-10.38-1.25-21.56-4.54-28.34-12.9c-3.51-4.33-3.29-9.19-1.85-14.16c0.24-0.81,0.45-1.49,0.22-2.36
		c-2.99-11.53,4.31-27.07,20.58-29.24c4.66-0.62,9.1-0.11,13.57,0.82c1.8,0.37,3.02,0.12,4.21-1.5c1.89-2.56,4.37-4.59,7.52-5.49
		c1.28-0.37,1.4-1.04,1.31-2.18c-1.46-17.88-2.9-35.76-4.29-53.64c-0.1-1.31-0.58-1.83-1.79-2.19
		c-13.59-4.07-26.34-9.95-38.19-17.76c-1.15-0.76-1.72-0.61-2.65,0.33c-2.87,2.91-6.46,4.34-10.54,4.29
		c-1.11-0.01-1.65,0.28-2.12,1.2c-2.6,5.12-7.05,7.21-12.54,7.61c-2.98,0.22-5.94,0.64-8.94,0.17c-10.24-1.62-16.4-8.47-16.56-18.85
		c-0.04-2.4-0.65-3.56-2.93-4.52c-4.14-1.73-7.25-5.03-8.78-9.12c-1.55-4.11-4.79-5.62-8.23-7.1c-7.62-3.27-15.34-6.3-22.94-9.62
		c-12.7-5.55-14.82-18.25-4.72-27.86c10.71-10.19,21.41-20.39,32.18-30.52c1.24-1.17,1.48-2.11,1.09-3.84
		c-2.59-11.54-3.83-23.25-3.5-35.07c0.99-35.46,11.96-67.38,34.43-95.03c24.83-30.56,56.85-48.96,95.6-55.75
		c12.75-2.23,25.62-2.14,38.49-2.06c3.4,0.02,6.83-0.09,10.21,0.22c1.91,0.17,2.58-0.44,3.15-2.12
		c4.93-14.62,9.95-29.21,14.93-43.81c1.29-3.79,2.65-7.55,5.46-10.53c6.33-6.71,14-8.09,22.59-5.42c2.55,0.79,4.86,2.12,7.19,3.41
		c23.03,12.72,46.05,25.44,69.09,38.14c1.3,0.72,2.68,1.3,4.01,1.97c5.75,2.92,7.98,7.99,7.61,14c-0.62,9.94-5.31,17.81-13.52,23.52
		c-2.85,1.98-5.56,2.1-8.77,0.3c-19.85-11.09-39.81-21.97-59.68-33.02c-2.02-1.13-2.61-0.82-3.28,1.29
		c-1.93,6.08-4.02,12.12-6.21,18.13c-0.61,1.67-0.22,2.23,1.36,2.77c23.38,7.99,43.53,21.13,60.52,38.93
		c21.61,22.64,35.34,49.42,40.98,80.31c2.55,13.98,3.15,28.02,1.76,42.11c-1.23,12.41-4.2,24.49-8.28,36.28
		c-0.76,2.2-0.67,3.84,0.8,5.68c1.75,2.2,3.16,4.67,4.81,6.96c0.65,0.91,0.63,1.54-0.11,2.37c-1.32,1.49-2.55,3.06-3.78,4.63
		c-0.81,1.04-1.45,2.22-0.12,3.26c1.19,0.94,2.23,0.23,3-0.74c4.65-5.87,9.84-11.25,14.9-16.74c0.71-0.77,0.81-1.55,0.7-2.5
		c-0.28-2.39-0.42-4.79-0.42-7.2c0-9.16,6.39-12.67,14.24-12.55c2.55,0.04,3.43-0.21,4.28-2.81c1.7-5.23,5.87-8.54,10.68-10.94
		c4.26-2.12,8.82-3.33,13.52-4.12c4.2-0.7,8.18-1.95,9.64-6.65c0.44-1.41,0.69-2.91,0.8-4.39c0.48-6.47,4.8-10.41,11.37-10.17
		c1.99,0.07,3.96,0.42,5.84,1.13c6.06,2.31,8.52,7.82,6.3,13.92c-1.14,3.12-3.04,5.67-5.3,8.03c-3.06,3.2-5.31,6.79-5.08,11.49
		c0.22,4.47,1.82,6.6,6.3,7.25c8.93,1.3,15.21,6.39,19.72,13.77c3.73,6.1,4.43,12.79,2.21,19.66c-0.42,1.3-0.6,2.5-0.46,3.87
		c0.6,5.73-2.2,10.28-7.59,12.3c-1.54,0.58-2.5,1.3-2.77,3.06c-0.69,4.53-4.7,7.15-9.25,6.34c-5.34-0.96-9.21-4.43-13.22-7.61
		c-4.25-3.37-7.56-7.69-11.27-11.61c-2.75-2.9-6.12-4.61-10.01-6.18c0.21,1.12,0.35,1.9,0.51,2.68c1.73,8.36-4.34,14.07-12.62,11.83
		c-2.59-0.7-5.06-1.77-7.18-3.36c-1.78-1.34-2.75-0.85-4.08,0.63c-5.45,6.05-11.02,11.98-16.53,17.97
		c-3.12,3.39-6.72,5.98-11.46,6.43c-6.2,0.59-11.01-1.96-14.54-6.94c-3.45-4.88-6.76-9.86-10.26-14.99
		c-2.08,2.85-4.04,5.66-6.12,8.39c-21.8,28.55-49.98,47.62-84.79,56.7c-1.97,0.51-2.26,1.21-1.95,3
		c2.95,17.19,5.88,34.38,8.67,51.59c0.33,2.04,1.17,2.92,3.04,3.53c9.31,3.06,13.68,10.15,14.05,19.85c0.02,0.58,0.1,1.24-0.14,1.72
		c-1.6,3.32-0.5,5.93,1.54,8.76c2.57,3.59,4.77,7.83,4.05,12.28c-0.76,4.74-0.54,9.39-0.66,14.1
		C289.97,498.94,265.89,500.46,254.36,499.91z M304.61,329.06c-6.79,5.57-13.69,10.99-21.24,15.52c-5.31,3.18-10.76,6.09-16.24,8.95
		c15.12-4.65,28.97-11.76,41.51-21.44c2.51-0.98,4.57-2.51,6.02-4.81c7.46-6.09,14.05-13.02,19.99-20.58
		c2.09-1.52,3.61-3.48,4.43-5.95c4.39-5.97,8.1-12.36,11.44-18.97c1.86-2.18,2.91-4.73,3.42-7.53c2.74-6.27,5.02-12.69,6.63-19.34
		c1.31-2.19,1.8-4.58,1.79-7.11c1.43-7.07,2.47-14.2,2.79-21.41c0.31-2.48,1.16-4.94,0.25-7.46c0.12-7.01-0.41-13.98-1.47-20.91
		c0.13-2.58-0.26-5.08-1.22-7.48c-1.61-8.54-4.06-16.84-7.3-24.91c-0.47-2.38-1.46-4.53-2.82-6.53
		c-3.28-7.47-7.26-14.56-11.97-21.22c-1.29-2.49-2.78-4.84-4.93-6.7c-5.24-7.22-11.32-13.65-18.04-19.49
		c-1.52-1.83-3.34-3.32-5.38-4.54c-12.95-10.77-27.55-18.56-43.39-24.13c-0.59-0.21-1.21-0.36-1.96,0.12
		c5.85,2.6,11.37,5.57,16.75,8.82c8.98,5.42,17.09,11.96,24.86,18.96c1.65,1.64,3.29,3.29,4.94,4.93
		c5.54,6.01,10.67,12.36,15.48,18.98c1.39,2.12,2.77,4.23,4.16,6.35c0.99,1.81,1.93,3.66,2.97,5.44c3.23,5.5,5.52,11.47,8.39,17.15
		c0.39,1.87,0.94,3.67,1.93,5.32c2.4,8.04,4.62,16.12,6.17,24.38c0.35,2.69,0.71,5.39,1.06,8.08c0.5,5.78,0.92,11.56,0.91,17.36
		c-0.04,2.31-0.09,4.62-0.13,6.93c-0.14,0.37-0.4,0.74-0.39,1.11c0.18,6.05-1.11,11.95-1.81,17.92c-0.4,1.99-0.8,3.97-1.2,5.96
		c-1.64,6.38-3.52,12.69-5.59,18.94c-0.94,2.06-1.92,4.11-2.44,6.33c-3.55,7.33-7.17,14.62-11.51,21.53
		c-1.13,1.67-2.26,3.35-3.38,5.02c-5.32,7.4-11.23,14.31-17.55,20.88C308.55,325.37,306.58,327.21,304.61,329.06z M206.78,360.97
		c78.83-0.07,142.72-64.02,142.7-142.82c-0.02-78.82-63.94-142.74-142.76-142.77c-78.9-0.02-142.94,64.08-142.83,142.95
		C64.01,297.18,127.98,361.04,206.78,360.97z M341.27,72.55c1.38-7.91,3.24-15.3,6.71-22.17c0.91-1.81,0.65-2.61-1.18-3.56
		c-17.25-8.93-34.44-17.97-51.66-26.97c-6.47-3.38-12.89-6.88-19.47-10.04c-7.68-3.69-15.35-0.58-18.63,7.28
		c-0.54,1.3-0.97,2.65-1.45,3.97c-5.53,15.2-11.19,30.35-16.33,45.7c-1.03,3.08-0.54,4.09,2.53,4.93c4.63,1.27,9.29,2.44,13.95,3.63
		c5.37,1.37,6.64,0.69,8.59-4.54c4.16-11.2,8.51-22.32,11.98-33.77c0.38-1.27,0.81-2.54,1.67-3.59c0.98-1.21,2.23-1.78,3.75-1.33
		c1.56,0.46,2.24,1.76,2.23,3.25c-0.01,1.22-0.19,2.54-0.71,3.62c-1.1,2.32-0.16,3.27,1.89,4.31c11.09,5.66,22.1,11.48,33.13,17.25
		C325.81,64.48,333.38,68.43,341.27,72.55z M203.42,442.78c-1.16,0.71-2.13,1.34-3.14,1.9c-2.85,1.58-5.81,2.88-9.13,3.03
		c-1.24,0.06-2.78,0.17-2.96-1.49c-0.17-1.56,1.37-1.66,2.47-1.89c3.31-0.69,6.34-1.99,8.95-4.13c2.41-1.98,2.71-3.78,1.38-6.58
		c-1.2-2.52-3.41-3.75-5.84-4.74c-1.63-0.66-2.5-0.72-2.82,1.6c-0.72,5.24-4.99,9.37-9.93,10.22c-5.35,0.91-10.48-1.46-13.14-6.09
		c-1.35-2.34-1.77-2.35-3.47-0.12c-2,2.63-2.01,2.63,0.8,4.43c2.8,1.79,5.58,3.59,8.15,5.71c1.36,1.12,2.62,2.41,1.36,4.2
		c-1.33,1.88-3.05,1.14-4.62,0.16c-0.56-0.35-1.06-0.8-1.61-1.17c-3.46-2.29-6.82-4.75-10.41-6.83c-6.31-3.65-13.11-4.54-20.19-2.73
		c-12.56,3.21-16.99,18.01-8.05,27.07c3.62,3.67,8.28,5.64,13.31,6.24c9.47,1.13,18.96,2.55,28.52,1.86
		c7.7-0.56,15.36-1.71,22.67-4.36c6.8-2.47,8.78-5.18,8.81-12.33C204.53,452.14,204.67,447.48,203.42,442.78z M477.49,280.74
		c0.68-4.61-1.18-8.01-3.76-11.23c-3.77-4.72-8.8-7.07-14.56-8.39c-9.55-2.19-13.93-13.56-8.42-21.71
		c2.32-3.43,4.88-6.69,7.24-10.09c1.43-2.06,2.24-4.32,0.67-6.7c-1.3-1.96-3.15-3-5.52-2.6c-2.78,0.47-3.9,2.56-4.49,5.05
		c-0.48,2.02-0.97,4.03-1.45,6.05c-0.46,1.93-1.47,3.61-3.03,4.73c-2.54,1.83-5.15,3.61-8.22,4.55c-4.75,1.46-9.49,2.95-14.21,4.53
		c-2.81,0.94-5.08,2.8-7.1,4.9c-0.81,0.84-1.34,2.05-0.39,3.15c0.91,1.06,1.72,0.07,2.62-0.26c1.86-0.68,3.77-1.29,5.71-1.68
		c4.65-0.94,9.2-1,13.3,2.02c1.24,0.91,2.15,1.91,1.61,3.52c-0.58,1.73-1.96,2.15-3.61,1.78c-1.05-0.23-2.06-0.63-3.11-0.88
		c-6.98-1.68-13.18-0.26-18.35,4.83c-1.82,1.79-2.19,3.83-0.89,6.32c3.18,6.12,8.73,9.27,14.69,11.63
		c8.87,3.52,16.89,8.05,22.78,15.83c1.49,1.97,3.41,3.63,5.24,5.31c2.08,1.91,4.37,3.57,6.81,5c1.9,1.11,4.04,1.12,5.62-0.16
		c1.51-1.22,0.52-3.12-0.1-4.62c-0.57-1.36-1.38-2.65-2.2-3.88c-3.17-4.74-7.55-8.11-12.45-10.88c-0.86-0.49-1.73-1.01-2.49-1.63
		c-1.27-1.03-1.95-2.38-1.13-3.95c0.81-1.55,2.28-1.85,3.87-1.35c0.94,0.3,1.86,0.72,2.74,1.17c7.5,3.86,13.54,9.26,17.48,16.81
		c0.61,1.16,1.15,1.19,2.06,0.45c2.04-1.67,2.6-3.84,1.89-6.27c-2.23-7.62-7.48-12.3-14.78-14.95c-3.48-1.27-7.21-1.07-10.77-1.85
		c-1.78-0.39-3.26-1.26-3.01-3.3c0.25-1.96,1.89-2.77,3.65-2.72C461.57,269.55,470.7,272.24,477.49,280.74z M256.86,448.01
		c-11.36-0.03-21.87,7.46-25.62,18.06c-1.02,2.9-0.28,5.18,1.62,7.31c0.96,1.07,2.17,1.79,3.44,2.42c8.99,4.44,18.52,5.75,28.31,4.2
		c4.8-0.76,9.51-2.39,13.8-4.84c4.06-2.31,5.18-5.6,3.58-9.85C278.14,455.13,267.83,448.04,256.86,448.01z M83.56,339.61
		c1.39,3.37,2.59,6.79,6.93,7.31c0.91,0.11,1.45,1.09,1.36,2.13c-0.11,1.15-0.84,1.79-1.92,1.98c-1.99,0.35-3.76-0.27-5.41-1.35
		c-0.57-0.37-1.1-1.1-1.79,0c-0.47,0.75-1.3,1.01-2.18,0.49c-0.85-0.49-0.89-1.32-0.94-2.16c-0.12-1.9-0.35-3.8-0.39-5.7
		c-0.06-2.74-2.16-2.44-3.72-2.27c-1.85,0.19-0.67,1.77-0.75,2.76c-0.03,0.4,0.08,0.83,0.17,1.23c1.34,5.63,3.32,10.73,9.94,11.98
		c4.74,0.9,9.42,0.4,14.06-0.67c0.76-0.18,1.23-0.71,1.74-1.29c4.29-4.92,4.7-10.6,3.31-16.62c-0.44-1.89-0.8-3.76-2.48-5.24
		c-10.39-9.2-18.9-19.99-26.4-31.61c-0.37-0.58-0.5-1.42-1.46-1.6c-1.37,2.51-2.01,5.25-2.78,7.96c-0.53,1.87-0.84,4.44-3.61,3.73
		c-2.59-0.66-1.75-2.93-1.36-4.8c0.18-0.86,0.82-2.05-0.12-2.51c-0.8-0.39-1.86,0.39-2.56,1.05c-1.03,0.97-1.95,2.09-2.42,3.44
		c-1.29,3.78-2.22,7.64-1.92,11.69c0.15,2.08,0.56,4.11,1.38,6.04c0.31,0.74,0.85,1.25,1.71,1.2c1.03-0.06,1.09-0.86,1.14-1.62
		c0.08-1.16,0.2-2.32,0.15-3.47c-0.09-2.14,0.51-4.11,1.3-6.04c0.36-0.9,1.1-1.5,2.17-1.29c1.04,0.21,1.52,0.99,1.58,1.98
		c0.04,0.65-0.1,1.32-0.15,1.98c-0.27,3.63-1.1,7.23-0.26,10.9c0.48,2.08,1.84,3.62,3.62,4.1c3.73,1,7.55,2.11,11.49,0.86
		c0.63-0.2,1.31-0.27,1.97-0.3c1.33-0.06,2.55,0.2,2.92,1.71c0.38,1.56-0.47,2.54-1.81,3.13C85.22,339.08,84.34,339.33,83.56,339.61
		z M154.08,484.06c8.27,0.42,16.66-0.24,24.8-1.04c8.74-0.85,17.07-1.69,24.77-6.33c1.97-1.19,3.28-2.78,3.7-5.04
		c0.16-0.84,0.11-1.77-0.7-2.24c-0.78-0.46-1.38,0.2-1.94,0.69c-3.08,2.65-6.7,4.29-10.57,5.37c-6.97,1.94-14.09,3.15-21.32,3.55
		c-10.08,0.56-20.03-1.1-30.01-2.06c-4.83-0.47-9.21-2.69-13.18-5.54c-1.35-0.97-2.68-1.96-3.18-3.7c-0.18-0.64-0.57-1.31-1.39-1.17
		c-0.91,0.16-1.05,0.95-1.06,1.73c-0.13,8.97,11.85,13.02,18.91,14.43C146.6,483.45,150.33,483.87,154.08,484.06z M395.39,267.53
		c0.26,12.7,8.28,24.22,20.86,28.81c1.37,0.5,2.77,0.55,4.17,0.3c1.36-0.24,2.36-1.08,2.34-2.49c-0.07-3.91-0.85-7.54-4.46-9.89
		c-2.08-1.36-4.27-2.61-6.14-4.23c-5.85-5.05-9.6-11-7.27-19.17c0.32-1.12-0.22-1.37-1.02-1.41c-5.1-0.27-7.87,0.51-8.26,5.68
		C395.53,266.12,395.43,267.11,395.39,267.53z M278.92,447.17c0.62-5.55-1.8-10.67-6.56-12.97c-7.11-3.44-14.62-4.54-22.45-2.82
		c-3.65,0.8-7.29,1.53-10.41,3.81c-3.46,2.53-5.69,7.93-4.66,11.84C249.45,436.87,264.09,436.87,278.92,447.17z M283.99,481.94
		c-18.16,9.49-36.34,9.45-54.51-0.03c-0.28,4.31,1.68,7.03,6.07,8.24c7.2,1.98,14.4,3.75,22.01,3.61
		c7.67-0.14,14.95-1.93,22.14-4.24C282.85,488.51,284.41,485.37,283.99,481.94z M352.86,50.79c-3.97,7-6.67,14.03-6.92,21.83
		c-0.02,0.53-0.67,1.18,0.01,1.57c0.73,0.43,1.19-0.3,1.68-0.72c4.15-3.56,6.49-8.18,7.25-13.48
		C355.32,56.94,355.43,53.72,352.86,50.79z M108.46,338.47c0.15,1.43,0.24,2.49,0.36,3.56c0.12,1.06,0.26,2.12,0.41,3.18
		c0.07,0.52-0.17,1.18,0.71,1.33c0.95,0.17,4.55-1.55,5.03-2.41c0.38-0.68-0.18-0.85-0.53-1.11
		C112.57,341.57,110.67,340.14,108.46,338.47z"/>
	<path class="st1" d="M206.78,360.97c-78.8,0.07-142.77-63.8-142.89-142.64c-0.12-78.88,63.93-142.98,142.83-142.95
		c78.82,0.02,142.74,63.95,142.76,142.77C349.5,296.96,285.61,360.91,206.78,360.97z M220.68,287.41c0.31,0.1,0.67,0.13,0.91,0.32
		c6.86,5.42,14.77,6.79,23.24,6.17c1.83-0.13,2.49-1.48,3.22-2.76c0.55-0.98,0.31-1.96-0.52-2.71c-1.13-1.04-2.42-1.48-3.86-0.66
		c-1.14,0.65-2.38,0.69-3.62,0.73c-11.28,0.31-21.19-7.36-23.63-18.29c-2.44-10.9,3.12-22.11,13.19-26.61
		c10.44-4.67,22.39-1.42,29.03,7.88c1.68,2.36,3.59,3.16,5.14,2.15c1.76-1.14,1.87-3.54,0.25-6c-0.18-0.28-0.36-0.57-0.6-0.79
		c-1.09-1.06-1.12-2.15-0.59-3.59c1.66-4.48,2.23-9.16,2.17-13.94c-0.12-9.46-0.44-18.93-0.15-28.38c0.24-7.73-1.3-14.83-5.38-21.35
		c-7.73-12.34-22.04-13.34-30.99-2.2c-0.67,0.84-1.32,1.72-1.86,2.65c-3.84,6.53-5.47,13.47-5.05,21.15
		c0.43,7.94-0.11,15.93-0.12,23.9c-0.01,4.3-0.46,8.65,0.65,12.88c0.49,1.86,0.08,2.9-1.39,4.22c-7.81,6.98-11.49,15.7-10.08,26.23
		c0.24,1.78-0.46,2.16-1.79,2.52c-10.6,2.9-21.08,3.67-31.23-1.73c-1.5-0.8-3.36-1.48-4.38,0.49c-1.08,2.09,0.79,2.96,2.28,3.67
		c2.54,1.22,4.16,3.14,5.18,5.75c0.97,2.48,1.83,4.98,2.42,7.57c1,4.4,2.45,8.63,5.2,12.29c5.33,7.1,13.76,8.39,20.82,3.05
		c1.84-1.39,3.46-3.1,5.1-4.74c0.94-0.93,1.41-2.06,0.65-3.38C217.09,292,218.75,289.59,220.68,287.41z M179.37,240.92
		c1.11-4.66,1.4-8.94,1.33-13.27c-0.14-8.96-0.41-17.93-0.12-26.88c0.25-7.74-1.29-14.88-5.51-21.31
		c-4.05-6.16-9.55-10.28-17.35-9.75c-6.97,0.47-11.83,4.57-15.33,10.26c-3.97,6.44-5.54,13.45-5.13,21.14
		c0.42,7.86-0.1,15.77-0.09,23.65c0.01,4.3-0.51,8.65,0.58,12.88c0.45,1.73-0.04,2.64-1.39,3.73c-8.63,6.98-12.42,16.15-10.99,27.09
		c2.01,15.31,15.28,27.6,34.61,25.37c1.65-0.19,2.23-1.63,2.84-2.87c0.5-1.01,0.11-1.96-0.72-2.68c-1.1-0.95-2.34-1.29-3.67-0.55
		c-1.22,0.68-2.53,0.74-3.86,0.76c-11.24,0.21-20.93-7.34-23.41-18.23c-2.51-11.02,3-22.09,13.32-26.74
		c11.84-5.34,25.41-0.09,30.5,11.77c0.32,0.76,0.75,1.49,1.23,2.16c4.36,6.08,14.13,7.51,19.78,2.9c1.96-1.6,2.67-3.69,1.61-5.2
		c-1.4-1.98-3.25-1.6-5.12-0.76c-0.76,0.34-1.5,0.73-2.27,1c-1.88,0.67-3.78,0.57-5.6-0.18c-3.32-1.37-4.2-4.29-2.24-7.27
		c1.03-1.55,2.34-2.81,4.05-3.58c1.51-0.67,2.61-1.63,2.09-3.43c-0.53-1.85-2.06-2.19-3.75-2.19
		C182.84,238.77,181.39,240,179.37,240.92z M327.54,220.15c0.37-5.34-0.36-10.63-1.12-15.84c-2.1-14.41-6.43-28.12-13.36-41.03
		c-5.77-10.73-13.04-20.3-21.54-28.92c-3.52-3.57-7.41-6.82-11.38-9.89c-4.63-3.59-9.5-6.88-14.67-9.67
		c-1.99-1.07-3.73-0.74-5.13,0.89c-2.04,2.36-0.99,5.34,2.38,7.32c11.08,6.54,20.77,14.8,29,24.62
		c8.01,9.56,14.37,20.18,18.87,31.89c4.19,10.89,6.78,22.15,7.41,33.74c0.56,10.33,0.19,20.67-1.88,30.89
		c-2.77,13.68-7.84,26.44-15.17,38.28c-3.48,5.62-7.61,10.83-12.08,15.71c-3.44,3.75-6.71,7.73-11.4,10.16
		c-1.97,1.02-2.43,4.06-1.18,5.68c1.6,2.07,4.04,2.37,6.2,0.6c7.65-6.25,14.59-13.25,20.48-21.17c7.38-9.94,13.25-20.71,17.42-32.45
		C325.09,247.72,327.29,234.12,327.54,220.15z M242.48,137.38c-11.86,0.03-22.75,8.87-24.56,23.91c-0.2,1.7,0.77,3.04,2.57,3.47
		c1.74,0.42,3.09-0.15,3.98-1.73c0.42-0.74,0.42-1.58,0.54-2.4c1.18-8.56,7.95-15.24,16.07-15.9c8.08-0.65,15.6,4.81,18.04,13.13
		c0.33,1.11,0.42,2.28,0.68,3.41c0.56,2.47,2.61,3.92,4.69,3.34c1.91-0.52,2.72-2.37,2.13-4.85c-0.31-1.29-0.57-2.59-0.93-3.87
		C262.56,144.94,253.15,137.44,242.48,137.38z M155.68,152.53c-1.33,0-2.66-0.09-3.98,0.02c-4.28,0.33-8.01,2.1-11.36,4.67
		c-1.53,1.17-2.25,2.81-0.97,4.57c1.24,1.71,2.95,1.62,4.66,0.65c0.5-0.29,0.99-0.61,1.46-0.95c2.36-1.72,5.07-2.55,7.92-2.66
		c5.85-0.23,11.61,0.29,17.09,2.6c2.88,1.21,4.44,0.95,5.15-0.82c0.69-1.71-0.27-3.35-2.8-4.58c-1.12-0.54-2.29-0.99-3.46-1.38
		C164.95,153.17,160.37,152.45,155.68,152.53z M139.65,260.52c0.09,1.25-0.02,2.4,0.34,3.54c0.58,1.81,1.65,2.94,3.64,2.4
		c1.97-0.54,2.86-2.65,1.91-4.51c-0.58-1.14-0.57-2.25-0.26-3.36c1.13-4.02,6.5-6.05,10.02-3.8c1.54,0.99,3.04,0.7,3.92-0.66
		c0.74-1.15,0.94-2.87-0.63-3.71c-3.96-2.13-7.93-2.95-12.24-0.52C142.05,252.31,139.67,255.65,139.65,260.52z M225.14,260.87
		c0.08,0.82,0.2,1.64,0.22,2.46c0.05,1.45,0.57,2.57,1.98,3.14c1.32,0.54,2.22-0.24,3.08-1.02c1.13-1.04,1.36-2.4,0.56-3.6
		c-1.09-1.62-0.57-3.09,0.16-4.44c1.8-3.31,6.32-4.41,9.6-2.55c1.59,0.9,3.05,0.69,4.03-1c0.87-1.5,0.43-2.81-1.04-3.55
		c-3.91-2-7.78-2.83-12.03-0.46C227.26,252.34,225.04,255.85,225.14,260.87z M244.43,113.29c2.04-0.01,2.9-0.79,2.91-2.42
		c0.01-1.68-0.71-2.66-2.52-2.61c-1.77,0.04-2.98,0.94-2.89,2.66C242,112.45,243.2,113.32,244.43,113.29z"/>
	<g>
		<path class="st2" d="M341.27,72.55c-7.89-4.12-15.46-8.07-23.02-12.02c-11.04-5.76-22.05-11.58-33.13-17.25
			c-2.05-1.05-2.99-2-1.89-4.31c0.52-1.08,0.7-2.41,0.71-3.62c0.01-1.49-0.67-2.79-2.23-3.25c-1.52-0.45-2.77,0.12-3.75,1.33
			c-0.85,1.06-1.28,2.33-1.67,3.59c-3.47,11.44-7.82,22.57-11.98,33.77c-1.95,5.24-3.21,5.91-8.59,4.54
			c-4.66-1.19-9.32-2.36-13.95-3.63c-3.07-0.84-3.56-1.85-2.53-4.93c5.14-15.34,10.79-30.5,16.33-45.7
			c0.48-1.33,0.91-2.67,1.45-3.97c3.28-7.86,10.95-10.98,18.63-7.28c6.58,3.16,13,6.66,19.47,10.04c17.22,9,34.41,18.04,51.66,26.97
			c1.83,0.95,2.09,1.75,1.18,3.56C344.51,57.25,342.65,64.64,341.27,72.55z"/>
	</g>
	<g>
		<path class="st2" d="M203.42,442.78c1.25,4.7,1.12,9.36,1.1,13.96c-0.02,7.15-2.01,9.87-8.81,12.33
			c-7.31,2.65-14.97,3.8-22.67,4.36c-9.56,0.7-19.05-0.72-28.52-1.86c-5.02-0.6-9.69-2.58-13.31-6.24
			c-8.94-9.06-4.51-23.87,8.05-27.07c7.08-1.81,13.88-0.93,20.19,2.73c3.58,2.08,6.95,4.53,10.41,6.83
			c0.55,0.37,1.05,0.82,1.61,1.17c1.57,0.98,3.29,1.72,4.62-0.16c1.26-1.79,0-3.07-1.36-4.2c-2.57-2.12-5.35-3.93-8.15-5.71
			c-2.81-1.79-2.81-1.8-0.8-4.43c1.7-2.23,2.12-2.21,3.47,0.12c2.67,4.63,7.79,7.01,13.14,6.09c4.94-0.84,9.21-4.97,9.93-10.22
			c0.32-2.33,1.19-2.27,2.82-1.6c2.43,0.99,4.64,2.22,5.84,4.74c1.33,2.8,1.03,4.61-1.38,6.58c-2.61,2.14-5.64,3.44-8.95,4.13
			c-1.1,0.23-2.63,0.33-2.47,1.89c0.18,1.66,1.72,1.55,2.96,1.49c3.32-0.16,6.28-1.45,9.13-3.03
			C201.29,444.12,202.25,443.49,203.42,442.78z"/>
	</g>
	<path class="st3" d="M477.49,280.74c-6.79-8.5-15.92-11.19-26.06-11.45c-1.76-0.04-3.4,0.76-3.65,2.72
		c-0.26,2.05,1.23,2.91,3.01,3.3c3.56,0.78,7.29,0.58,10.77,1.85c7.29,2.65,12.55,7.32,14.78,14.95c0.71,2.44,0.15,4.6-1.89,6.27
		c-0.9,0.74-1.45,0.71-2.06-0.45c-3.94-7.55-9.97-12.95-17.48-16.81c-0.88-0.45-1.8-0.88-2.74-1.17c-1.59-0.5-3.06-0.2-3.87,1.35
		c-0.82,1.56-0.14,2.92,1.13,3.95c0.77,0.62,1.63,1.14,2.49,1.63c4.9,2.77,9.28,6.14,12.45,10.88c0.83,1.24,1.63,2.52,2.2,3.88
		c0.62,1.49,1.61,3.4,0.1,4.62c-1.58,1.28-3.72,1.27-5.62,0.16c-2.44-1.43-4.74-3.09-6.81-5c-1.83-1.69-3.75-3.34-5.24-5.31
		c-5.89-7.78-13.9-12.31-22.78-15.83c-5.96-2.37-11.51-5.51-14.69-11.63c-1.29-2.49-0.92-4.53,0.89-6.32
		c5.17-5.09,11.37-6.5,18.35-4.83c1.05,0.25,2.06,0.65,3.11,0.88c1.65,0.37,3.02-0.05,3.61-1.78c0.54-1.61-0.37-2.61-1.61-3.52
		c-4.09-3.01-8.64-2.96-13.3-2.02c-1.94,0.39-3.85,1-5.71,1.68c-0.9,0.33-1.71,1.32-2.62,0.26c-0.95-1.1-0.41-2.31,0.39-3.15
		c2.02-2.1,4.29-3.96,7.1-4.9c4.71-1.58,9.45-3.08,14.21-4.53c3.07-0.94,5.67-2.72,8.22-4.55c1.56-1.13,2.57-2.8,3.03-4.73
		c0.48-2.02,0.97-4.03,1.45-6.05c0.59-2.49,1.71-4.58,4.49-5.05c2.37-0.4,4.23,0.65,5.52,2.6c1.58,2.38,0.77,4.63-0.67,6.7
		c-2.36,3.4-4.93,6.66-7.24,10.09c-5.51,8.15-1.13,19.52,8.42,21.71c5.76,1.32,10.78,3.67,14.56,8.39
		C476.31,272.72,478.17,276.13,477.49,280.74z"/>
	<g>
		<path class="st2" d="M256.86,448.01c10.97,0.03,21.28,7.12,25.13,17.3c1.61,4.25,0.48,7.53-3.58,9.85c-4.29,2.45-9,4.08-13.8,4.84
			c-9.79,1.55-19.32,0.24-28.31-4.2c-1.27-0.63-2.49-1.34-3.44-2.42c-1.9-2.13-2.64-4.41-1.62-7.31
			C234.99,455.46,245.51,447.98,256.86,448.01z"/>
	</g>
	<path class="st3" d="M83.56,339.61c0.79-0.28,1.66-0.53,2.49-0.9c1.35-0.59,2.19-1.56,1.81-3.13c-0.37-1.51-1.6-1.78-2.92-1.71
		c-0.66,0.03-1.34,0.1-1.97,0.3c-3.95,1.26-7.77,0.14-11.49-0.86c-1.79-0.48-3.15-2.02-3.62-4.1c-0.84-3.67-0.01-7.27,0.26-10.9
		c0.05-0.66,0.19-1.33,0.15-1.98c-0.06-0.99-0.54-1.77-1.58-1.98c-1.06-0.21-1.8,0.39-2.17,1.29c-0.78,1.93-1.38,3.9-1.3,6.04
		c0.05,1.15-0.08,2.31-0.15,3.47c-0.05,0.75-0.11,1.56-1.14,1.62c-0.86,0.05-1.4-0.46-1.71-1.2c-0.81-1.93-1.22-3.95-1.38-6.04
		c-0.29-4.05,0.63-7.91,1.92-11.69c0.46-1.35,1.39-2.47,2.42-3.44c0.7-0.66,1.76-1.44,2.56-1.05c0.94,0.46,0.3,1.65,0.12,2.51
		c-0.39,1.87-1.23,4.14,1.36,4.8c2.78,0.71,3.08-1.86,3.61-3.73c0.77-2.71,1.42-5.45,2.78-7.96c0.96,0.17,1.09,1.02,1.46,1.6
		c7.5,11.63,16.01,22.42,26.4,31.61c1.67,1.48,2.04,3.34,2.48,5.24c1.4,6.02,0.98,11.7-3.31,16.62c-0.51,0.58-0.97,1.11-1.74,1.29
		c-4.65,1.08-9.32,1.57-14.06,0.67c-6.61-1.25-8.6-6.35-9.94-11.98c-0.1-0.4-0.21-0.83-0.17-1.23c0.08-0.98-1.1-2.56,0.75-2.76
		c1.55-0.16,3.66-0.47,3.72,2.27c0.04,1.9,0.27,3.8,0.39,5.7c0.05,0.84,0.09,1.67,0.94,2.16c0.88,0.51,1.71,0.26,2.18-0.49
		c0.69-1.1,1.22-0.37,1.79,0c1.65,1.09,3.42,1.7,5.41,1.35c1.08-0.19,1.81-0.83,1.92-1.98c0.1-1.04-0.45-2.02-1.36-2.13
		C86.15,346.4,84.94,342.99,83.56,339.61z"/>
	<path class="st3" d="M154.08,484.19c-2.29-0.11-4.56-0.31-6.8-0.6c-7.9-1.02-23.4-5.02-23.25-15.3c0.01-0.79,0.15-1.57,1.06-1.73
		c0.82-0.15,1.21,0.53,1.39,1.17c0.49,1.74,1.83,2.73,3.18,3.7c3.97,2.85,8.35,5.07,13.18,5.54c9.98,0.96,19.93,2.62,30.01,2.06
		c7.23-0.4,14.34-1.6,21.32-3.55c3.86-1.08,7.48-2.71,10.57-5.37c0.57-0.49,1.16-1.15,1.94-0.69c0.81,0.47,0.86,1.39,0.7,2.24
		c-0.42,2.26-1.73,3.85-3.7,5.04c-6.19,3.73-13.08,5.29-20.11,6.03C174,483.73,163.86,484.68,154.08,484.19z"/>
	<path class="st3" d="M395.39,267.53c0.04-0.42,0.13-1.41,0.21-2.4c0.4-5.17,3.16-5.94,8.26-5.68c0.8,0.04,1.34,0.29,1.02,1.41
		c-2.33,8.17,1.43,14.12,7.27,19.17c1.87,1.61,4.06,2.87,6.14,4.23c3.61,2.35,4.39,5.99,4.46,9.89c0.02,1.42-0.98,2.25-2.34,2.49
		c-1.4,0.25-2.8,0.2-4.17-0.3C403.67,291.75,395.65,280.24,395.39,267.53z"/>
	<g>
		<path class="st2" d="M278.92,447.17c-14.83-10.3-29.47-10.31-44.08-0.14c-1.03-3.92,1.2-9.32,4.66-11.84
			c3.12-2.28,6.76-3,10.41-3.81c7.83-1.72,15.34-0.62,22.45,2.82C277.11,436.5,279.54,441.62,278.92,447.17z"/>
	</g>
	<path class="st3" d="M283.99,481.94c0.42,3.43-1.14,6.57-4.28,7.58c-7.19,2.31-14.47,4.1-22.14,4.24
		c-7.61,0.14-14.81-1.63-22.01-3.61c-4.39-1.21-6.35-3.93-6.07-8.24C247.66,491.39,265.83,491.43,283.99,481.94z"/>
	<path class="st4" d="M355.41,165.62c3.24,8.07,5.69,16.37,7.3,24.91c-3.39,0.98-6.78,1.96-10.17,2.94
		c-1.55-8.25-3.76-16.34-6.17-24.38c1.02,0.11,1.86-0.23,2.76-0.75C351.11,167.2,353.12,166.05,355.41,165.62z"/>
	<path class="st4" d="M352.19,244.86c0.7-5.96,2-11.86,1.81-17.92c-0.01-0.36,0.26-0.74,0.39-1.11c3.54,1.12,7.18,0.25,10.77,0.54
		c-0.32,7.22-1.37,14.34-2.79,21.41C358.84,247.28,355.47,246.21,352.19,244.86z"/>
	<path class="st4" d="M340.62,137.87c4.71,6.67,8.68,13.75,11.97,21.22c-0.99,0.4-2.01,0.75-2.96,1.23
		c-1.87,0.93-4.22,1.16-5.18,3.45c-2.86-5.68-5.15-11.65-8.39-17.15c-1.05-1.78-1.98-3.62-2.97-5.44
		C335.65,140.2,338.54,139.95,340.62,137.87z"/>
	<path class="st4" d="M363.93,198.01c1.07,6.93,1.59,13.9,1.47,20.91c-3.63,0-7.26-0.01-10.89-0.01c0.01-5.8-0.42-11.59-0.91-17.36
		C357.18,200.76,360.46,199.09,363.93,198.01z"/>
	<path class="st4" d="M331.45,297.63c4.33-6.91,7.96-14.2,11.51-21.53c2.52,1.89,5.05,3.79,7.57,5.68
		c-3.35,6.61-7.05,12.99-11.44,18.97C336.38,300.1,334.07,298.48,331.45,297.63z"/>
	<path class="st4" d="M360.58,254.9c-1.61,6.65-3.89,13.08-6.63,19.34c-2.85-1.49-5.7-2.99-8.55-4.48
		c2.07-6.25,3.95-12.56,5.59-18.94C354.12,252.34,357.58,253.06,360.58,254.9z"/>
	<path class="st4" d="M334.65,306.69c-5.95,7.56-12.53,14.5-19.99,20.58c-0.8-1.89-2.72-2.54-4.14-3.75
		c6.32-6.56,12.23-13.47,17.55-20.88C330.26,303.99,332.45,305.34,334.65,306.69z"/>
	<path class="st4" d="M317.65,111.68c6.72,5.84,12.81,12.27,18.04,19.49c-2.44,0.87-4.85,1.8-6.76,3.65
		c-4.81-6.61-9.94-12.96-15.48-18.98C314.69,114.3,316.04,112.87,317.65,111.68z"/>
	<path class="st4" d="M308.51,110.92c-7.77-6.99-15.88-13.54-24.86-18.96c-5.37-3.24-10.89-6.21-16.75-8.82
		c0.76-0.48,1.37-0.33,1.96-0.12c15.84,5.57,30.45,13.35,43.39,24.13C311.19,108.58,309.91,109.81,308.51,110.92z"/>
	<path class="st4" d="M308.64,332.08c-12.54,9.68-26.4,16.79-41.51,21.44c5.48-2.86,10.94-5.76,16.24-8.95
		c7.55-4.53,14.45-9.95,21.24-15.52C305.95,330.07,307.29,331.07,308.64,332.08z"/>
	<g>
		<path class="st2" d="M352.86,50.79c2.56,2.93,2.46,6.16,2.02,9.21c-0.76,5.31-3.1,9.92-7.25,13.48c-0.48,0.41-0.95,1.15-1.68,0.72
			c-0.68-0.4-0.03-1.04-0.01-1.57C346.19,64.82,348.89,57.79,352.86,50.79z"/>
	</g>
	<path class="st5" d="M363.93,198.01c-3.48,1.08-6.75,2.75-10.33,3.54c-0.35-2.69-0.71-5.39-1.06-8.08
		c3.39-0.98,6.78-1.96,10.17-2.94C363.68,192.93,364.06,195.43,363.93,198.01z"/>
	<path class="st5" d="M354.52,218.91c3.63,0,7.26,0.01,10.89,0.01c0.91,2.52,0.06,4.98-0.25,7.46c-3.58-0.29-7.22,0.59-10.77-0.54
		C354.44,223.53,354.48,221.22,354.52,218.91z"/>
	<path class="st5" d="M345.4,269.76c2.85,1.49,5.7,2.99,8.55,4.48c-0.51,2.8-1.56,5.35-3.42,7.53c-2.52-1.89-5.05-3.78-7.57-5.68
		C343.48,273.87,344.46,271.82,345.4,269.76z"/>
	<path class="st5" d="M328.93,134.83c1.91-1.85,4.32-2.78,6.76-3.65c2.15,1.86,3.64,4.2,4.93,6.7c-2.08,2.08-4.97,2.33-7.53,3.31
		C331.7,139.06,330.31,136.95,328.93,134.83z"/>
	<path class="st5" d="M360.58,254.9c-3-1.83-6.46-2.56-9.59-4.07c0.4-1.99,0.8-3.97,1.2-5.96c3.28,1.35,6.65,2.42,10.18,2.93
		C362.38,250.31,361.9,252.71,360.58,254.9z"/>
	<path class="st5" d="M344.44,163.77c0.97-2.29,3.31-2.52,5.18-3.45c0.96-0.47,1.97-0.82,2.96-1.23c1.36,1.99,2.35,4.15,2.82,6.53
		c-2.3,0.43-4.3,1.58-6.27,2.72c-0.9,0.52-1.74,0.86-2.76,0.75C345.38,167.44,344.83,165.63,344.44,163.77z"/>
	<path class="st5" d="M334.65,306.69c-2.2-1.35-4.39-2.69-6.59-4.04c1.13-1.67,2.26-3.35,3.38-5.02c2.62,0.85,4.93,2.47,7.63,3.11
		C338.26,303.21,336.74,305.16,334.65,306.69z"/>
	<path class="st5" d="M308.64,332.08c-1.34-1.01-2.69-2.02-4.03-3.03c1.97-1.84,3.94-3.69,5.91-5.53c1.42,1.21,3.34,1.86,4.14,3.75
		C313.21,329.57,311.14,331.1,308.64,332.08z"/>
	<path class="st5" d="M308.51,110.92c1.4-1.1,2.67-2.34,3.75-3.77c2.04,1.22,3.86,2.7,5.38,4.54c-1.61,1.18-2.96,2.62-4.2,4.17
		C311.8,114.21,310.16,112.56,308.51,110.92z"/>
	<path class="st3" d="M108.46,338.47c2.2,1.67,4.1,3.1,5.98,4.55c0.34,0.26,0.9,0.43,0.53,1.11c-0.47,0.86-4.07,2.58-5.03,2.41
		c-0.88-0.15-0.63-0.81-0.71-1.33c-0.15-1.06-0.29-2.12-0.41-3.18C108.71,340.96,108.61,339.9,108.46,338.47z"/>
	<path class="st0" d="M214.88,293.92c0.77,1.31,0.29,2.45-0.65,3.38c-1.65,1.63-3.26,3.34-5.1,4.74
		c-7.05,5.34-15.49,4.05-20.82-3.05c-2.75-3.67-4.2-7.89-5.2-12.29c-0.59-2.6-1.45-5.09-2.42-7.57c-1.02-2.61-2.64-4.53-5.18-5.75
		c-1.49-0.71-3.36-1.58-2.28-3.67c1.02-1.97,2.88-1.29,4.38-0.49c10.15,5.4,20.62,4.63,31.23,1.73c1.33-0.36,2.03-0.75,1.79-2.52
		c-1.42-10.53,2.27-19.25,10.08-26.23c1.47-1.32,1.88-2.36,1.39-4.22c-1.11-4.22-0.66-8.58-0.65-12.88
		c0.01-7.97,0.55-15.96,0.12-23.9c-0.42-7.68,1.21-14.62,5.05-21.15c0.55-0.93,1.19-1.81,1.86-2.65
		c8.96-11.14,23.26-10.14,30.99,2.2c4.08,6.52,5.63,13.61,5.38,21.35c-0.3,9.45,0.02,18.92,0.15,28.38
		c0.06,4.78-0.51,9.46-2.17,13.94c-0.53,1.44-0.49,2.53,0.59,3.59c0.23,0.23,0.42,0.52,0.6,0.79c1.62,2.46,1.51,4.86-0.25,6
		c-1.55,1.01-3.46,0.21-5.14-2.15c-6.64-9.31-18.59-12.55-29.03-7.88c-10.07,4.5-15.63,15.71-13.19,26.61
		c2.44,10.93,12.35,18.6,23.63,18.29c1.24-0.03,2.48-0.08,3.62-0.73c1.44-0.83,2.73-0.38,3.86,0.66c0.83,0.76,1.07,1.74,0.52,2.71
		c-0.72,1.28-1.38,2.63-3.22,2.76c-8.47,0.62-16.38-0.75-23.24-6.17c-0.24-0.19-0.61-0.21-0.91-0.32c-1.59-1.89-3.21-3.76-4.77-5.69
		c-0.65-0.8-1.26-0.59-1.93-0.12c-2.97,2.08-5.53,4.48-6.61,8.12c-0.38,1.28-0.49,3.28-2.28,2.97c-1.5-0.26-1.55-2.14-1.65-3.56
		c-0.02-0.25,0-0.5-0.02-0.74c-0.05-0.46,0.29-1.06-0.31-1.32c-0.54-0.23-0.93,0.23-1.28,0.56c-1.95,1.88-3.31,4.13-4.07,6.72
		c-0.61,2.08-1.4,4.49,0.65,5.99c2.02,1.48,4.33,0.35,6.31-0.73c2.43-1.32,4.35-3.3,6.24-5.28
		C212.15,293.08,213.43,292.67,214.88,293.92z M246.52,178.89c-4.43-1.94-9.49-0.76-13.28,3.12c-4.26,4.37-6.29,9.73-6.35,15.77
		c-0.1,11.29-0.09,22.57-0.07,33.86c0,1.4,0.29,2.8,0.42,4.2c0.13,1.42,0.63,1.82,2.08,1.2c2.45-1.05,5.05-1.69,7.73-1.78
		c1.71-0.06,2.01-0.89,1.99-2.38c-0.06-4.15,0.03-8.3-0.01-12.45c-0.01-1.29,0.27-1.84,1.75-2c5.47-0.62,9.1-4.64,9.06-9.74
		c-0.04-5.19-3.79-9.08-9.45-9.63c-1.15-0.11-1.57-0.35-1.58-1.56C238.73,190.27,240.71,183.92,246.52,178.89z"/>
	<path class="st0" d="M179.37,240.92c2.02-0.92,3.47-2.15,5.4-2.16c1.69-0.01,3.22,0.34,3.75,2.19c0.51,1.81-0.59,2.76-2.09,3.43
		c-1.72,0.77-3.03,2.02-4.05,3.58c-1.97,2.98-1.09,5.9,2.24,7.27c1.82,0.75,3.72,0.84,5.6,0.18c0.78-0.28,1.52-0.66,2.27-1
		c1.87-0.84,3.72-1.22,5.12,0.76c1.06,1.5,0.35,3.6-1.61,5.2c-5.65,4.6-15.41,3.18-19.78-2.9c-0.48-0.67-0.9-1.4-1.23-2.16
		c-5.08-11.86-18.66-17.11-30.5-11.77c-10.32,4.65-15.83,15.72-13.32,26.74c2.48,10.89,12.17,18.44,23.41,18.23
		c1.33-0.02,2.64-0.08,3.86-0.76c1.33-0.74,2.58-0.4,3.67,0.55c0.83,0.72,1.22,1.67,0.72,2.68c-0.61,1.25-1.19,2.68-2.84,2.87
		c-19.33,2.22-32.6-10.07-34.61-25.37c-1.43-10.94,2.36-20.11,10.99-27.09c1.34-1.09,1.83-2,1.39-3.73
		c-1.09-4.23-0.57-8.58-0.58-12.88c-0.01-7.89,0.51-15.79,0.09-23.65c-0.41-7.69,1.16-14.69,5.13-21.14
		c3.5-5.69,8.36-9.79,15.33-10.26c7.8-0.53,13.3,3.59,17.35,9.75c4.22,6.42,5.76,13.57,5.51,21.31c-0.29,8.95-0.02,17.92,0.12,26.88
		C180.77,231.98,180.48,236.25,179.37,240.92z M162.19,178.89c-4.18-1.9-9.11-0.88-12.86,2.75c-4.53,4.39-6.66,9.88-6.72,16.12
		c-0.11,11.29-0.09,22.59-0.08,33.88c0,1.4,0.27,2.8,0.42,4.2c0.12,1.09,0.6,1.36,1.68,0.95c2.58-0.98,5.26-1.57,8.02-1.62
		c1.61-0.03,2.13-0.65,2.09-2.26c-0.09-4.07,0.02-8.14-0.04-12.21c-0.02-1.46,0.22-2.15,1.98-2.33c5.23-0.51,8.89-4.66,8.87-9.67
		c-0.02-5.11-3.83-9.26-9.18-9.64c-1.63-0.12-1.84-0.67-1.85-2.07C154.5,189.89,156.63,183.69,162.19,178.89z"/>
	<path class="st6" d="M327.54,220.15c-0.25,13.97-2.46,27.57-7.16,40.82c-4.17,11.74-10.03,22.51-17.42,32.45
		c-5.89,7.92-12.82,14.91-20.48,21.17c-2.16,1.77-4.6,1.47-6.2-0.6c-1.25-1.61-0.79-4.66,1.18-5.68c4.68-2.43,7.96-6.41,11.4-10.16
		c4.47-4.88,8.59-10.08,12.08-15.71c7.33-11.84,12.4-24.6,15.17-38.28c2.07-10.23,2.44-20.57,1.88-30.89
		c-0.63-11.6-3.22-22.86-7.41-33.74c-4.5-11.71-10.86-22.33-18.87-31.89c-8.23-9.82-17.93-18.08-29-24.62
		c-3.37-1.99-4.41-4.97-2.38-7.32c1.41-1.63,3.15-1.96,5.13-0.89c5.18,2.79,10.04,6.08,14.67,9.67c3.97,3.08,7.86,6.32,11.38,9.89
		c8.5,8.63,15.77,18.19,21.54,28.92c6.93,12.9,11.26,26.62,13.36,41.03C327.18,209.52,327.91,214.81,327.54,220.15z"/>
	<path class="st0" d="M242.48,137.38c10.67,0.06,20.08,7.56,23.21,18.52c0.36,1.27,0.62,2.58,0.93,3.87
		c0.59,2.48-0.22,4.32-2.13,4.85c-2.08,0.57-4.13-0.87-4.69-3.34c-0.26-1.13-0.36-2.3-0.68-3.41c-2.44-8.32-9.97-13.78-18.04-13.13
		c-8.11,0.65-14.89,7.34-16.07,15.9c-0.11,0.82-0.12,1.66-0.54,2.4c-0.89,1.58-2.24,2.14-3.98,1.73c-1.81-0.43-2.78-1.77-2.57-3.47
		C219.73,146.25,230.62,137.41,242.48,137.38z"/>
	<path class="st0" d="M155.68,152.53c4.69-0.08,9.27,0.64,13.72,2.11c1.18,0.39,2.35,0.84,3.46,1.38c2.53,1.23,3.5,2.87,2.8,4.58
		c-0.72,1.77-2.27,2.03-5.15,0.82c-5.48-2.31-11.24-2.83-17.09-2.6c-2.85,0.11-5.56,0.95-7.92,2.66c-0.47,0.34-0.96,0.66-1.46,0.95
		c-1.71,0.97-3.42,1.07-4.66-0.65c-1.28-1.76-0.56-3.4,0.97-4.57c3.35-2.57,7.08-4.34,11.36-4.67
		C153.02,152.45,154.35,152.53,155.68,152.53z"/>
	<path class="st7" d="M214.88,293.92c-1.45-1.24-2.72-0.84-3.91,0.41c-1.89,1.98-3.81,3.96-6.24,5.28
		c-1.98,1.07-4.29,2.21-6.31,0.73c-2.05-1.5-1.26-3.91-0.65-5.99c0.76-2.59,2.13-4.84,4.07-6.72c0.34-0.33,0.73-0.79,1.28-0.56
		c0.6,0.26,0.27,0.86,0.31,1.32c0.03,0.25,0.01,0.5,0.02,0.74c0.1,1.42,0.15,3.3,1.65,3.56c1.79,0.31,1.9-1.69,2.28-2.97
		c1.08-3.64,3.64-6.04,6.61-8.12c0.67-0.47,1.27-0.68,1.93,0.12c1.56,1.92,3.18,3.79,4.77,5.69
		C218.75,289.59,217.09,292,214.88,293.92z"/>
	<path class="st6" d="M139.65,260.52c0.02-4.87,2.4-8.21,6.7-10.63c4.31-2.43,8.28-1.61,12.24,0.52c1.57,0.85,1.37,2.56,0.63,3.71
		c-0.88,1.37-2.37,1.65-3.92,0.66c-3.52-2.25-8.89-0.21-10.02,3.8c-0.31,1.12-0.32,2.22,0.26,3.36c0.94,1.86,0.06,3.97-1.91,4.51
		c-1.99,0.54-3.05-0.58-3.64-2.4C139.62,262.92,139.74,261.77,139.65,260.52z"/>
	<path class="st6" d="M225.14,260.87c-0.1-5.02,2.12-8.54,6.56-11.02c4.25-2.37,8.12-1.54,12.03,0.46c1.47,0.75,1.9,2.05,1.04,3.55
		c-0.97,1.69-2.44,1.9-4.03,1c-3.28-1.86-7.8-0.77-9.6,2.55c-0.73,1.35-1.25,2.82-0.16,4.44c0.81,1.19,0.58,2.56-0.56,3.6
		c-0.86,0.79-1.76,1.56-3.08,1.02c-1.41-0.57-1.94-1.69-1.98-3.14C225.34,262.51,225.22,261.69,225.14,260.87z"/>
	<path class="st6" d="M244.43,113.29c-1.23,0.03-2.43-0.84-2.51-2.38c-0.08-1.71,1.12-2.62,2.89-2.66c1.82-0.04,2.54,0.93,2.52,2.61
		C247.33,112.5,246.47,113.28,244.43,113.29z"/>
	<path class="st3" d="M246.52,178.89c-5.81,5.03-7.79,11.38-7.71,18.6c0.01,1.21,0.44,1.45,1.58,1.56c5.66,0.55,9.41,4.44,9.45,9.63
		c0.04,5.1-3.59,9.11-9.06,9.74c-1.47,0.17-1.76,0.72-1.75,2c0.04,4.15-0.05,8.3,0.01,12.45c0.02,1.49-0.28,2.32-1.99,2.38
		c-2.67,0.09-5.28,0.74-7.73,1.78c-1.45,0.62-1.95,0.22-2.08-1.2c-0.13-1.4-0.42-2.8-0.42-4.2c-0.01-11.29-0.03-22.58,0.07-33.86
		c0.06-6.04,2.09-11.4,6.35-15.77C237.03,178.12,242.09,176.94,246.52,178.89z"/>
	<path class="st3" d="M162.19,178.89c-5.56,4.79-7.69,10.99-7.66,18.12c0,1.4,0.22,1.95,1.85,2.07c5.35,0.38,9.16,4.52,9.18,9.64
		c0.02,5.01-3.65,9.16-8.87,9.67c-1.76,0.17-2,0.87-1.98,2.33c0.05,4.07-0.06,8.14,0.04,12.21c0.04,1.6-0.48,2.23-2.09,2.26
		c-2.76,0.05-5.45,0.64-8.02,1.62c-1.07,0.41-1.56,0.14-1.68-0.95c-0.15-1.4-0.42-2.8-0.42-4.2c-0.01-11.29-0.03-22.59,0.08-33.88
		c0.06-6.23,2.19-11.73,6.72-16.12C153.08,178.01,158.01,176.99,162.19,178.89z"/>
</g>
</svg>
